STARTFONT 2.1
FONT Wordcomm_6x2x1
SIZE 16 72 72
FONTBOUNDINGBOX 8 16 0 0
SWIDTH 8000 0
DWIDTH 8 0
STARTPROPERTIES 2
FAMILY_NAME Wordcomm_6x2x1
FONT_ASCENT 16
FONT_DESCENT 0
ENDPROPERTIES
CHARS 312
STARTCHAR U+25BA
ENCODING 9658
SWIDTH 8000 0
DWIDTH 8 0
BBX 8 16 0 0
BITMAP
00
00
00
00
00
00
1F
1F
18
18
18
18
18
18
18
18
ENDCHAR
STARTCHAR U+25C4
ENCODING 9668
SWIDTH 8000 0
DWIDTH 8 0
BBX 8 16 0 0
BITMAP
00
00
00
00
00
00
FF
FF
18
18
18
18
18
18
18
18
ENDCHAR
STARTCHAR U+2195
ENCODING 8597
SWIDTH 8000 0
DWIDTH 8 0
BBX 8 16 0 0
BITMAP
00
00
00
00
00
00
F8
F8
18
18
18
18
18
18
18
18
ENDCHAR
STARTCHAR U+203C
ENCODING 8252
SWIDTH 8000 0
DWIDTH 8 0
BBX 8 16 0 0
BITMAP
18
18
18
18
18
18
1F
1F
18
18
18
18
18
18
18
18
ENDCHAR
STARTCHAR U+00B6
ENCODING 182
SWIDTH 8000 0
DWIDTH 8 0
BBX 8 16 0 0
BITMAP
18
18
18
18
18
18
FF
FF
18
18
18
18
18
18
18
18
ENDCHAR
STARTCHAR U+00A7
ENCODING 167
SWIDTH 8000 0
DWIDTH 8 0
BBX 8 16 0 0
BITMAP
18
18
18
18
18
18
F8
F8
18
18
18
18
18
18
18
18
ENDCHAR
STARTCHAR U+25AC
ENCODING 9644
SWIDTH 8000 0
DWIDTH 8 0
BBX 8 16 0 0
BITMAP
18
18
18
18
18
18
1F
1F
00
00
00
00
00
00
00
00
ENDCHAR
STARTCHAR U+21A8
ENCODING 8616
SWIDTH 8000 0
DWIDTH 8 0
BBX 8 16 0 0
BITMAP
18
18
18
18
18
18
FF
FF
00
00
00
00
00
00
00
00
ENDCHAR
STARTCHAR U+2191
ENCODING 8593
SWIDTH 8000 0
DWIDTH 8 0
BBX 8 16 0 0
BITMAP
18
18
18
18
18
18
F8
F8
00
00
00
00
00
00
00
00
ENDCHAR
STARTCHAR U+2193
ENCODING 8595
SWIDTH 8000 0
DWIDTH 8 0
BBX 8 16 0 0
BITMAP
00
00
00
00
00
00
FF
FF
00
00
00
00
00
00
00
00
ENDCHAR
STARTCHAR U+2192
ENCODING 8594
SWIDTH 8000 0
DWIDTH 8 0
BBX 8 16 0 0
BITMAP
18
18
18
18
18
18
18
18
18
18
18
18
18
18
18
18
ENDCHAR
STARTCHAR U+2190
ENCODING 8592
SWIDTH 8000 0
DWIDTH 8 0
BBX 8 16 0 0
BITMAP
00
00
00
C0
F0
FC
FF
FF
FC
F0
C0
00
00
00
00
00
ENDCHAR
STARTCHAR U+221F
ENCODING 8735
SWIDTH 8000 0
DWIDTH 8 0
BBX 8 16 0 0
BITMAP
00
00
00
03
0F
3F
FF
FF
3F
0F
03
00
00
00
00
00
ENDCHAR
STARTCHAR U+2194
ENCODING 8596
SWIDTH 8000 0
DWIDTH 8 0
BBX 8 16 0 0
BITMAP
18
18
3C
3C
7E
7E
FF
FF
18
18
18
18
18
18
18
18
ENDCHAR
STARTCHAR U+25B2
ENCODING 9650
SWIDTH 8000 0
DWIDTH 8 0
BBX 8 16 0 0
BITMAP
18
18
18
18
18
18
18
18
FF
FF
7E
7E
3C
3C
18
18
ENDCHAR
STARTCHAR U+25BC
ENCODING 9660
SWIDTH 8000 0
DWIDTH 8 0
BBX 8 16 0 0
BITMAP
FE
FE
FE
FE
FE
FE
FE
FE
FE
FE
FE
FE
FE
FE
FE
FE
ENDCHAR
STARTCHAR U+0020
ENCODING 32
SWIDTH 8000 0
DWIDTH 8 0
BBX 8 16 0 0
BITMAP
00
00
00
00
00
00
00
00
00
00
00
00
00
00
00
00
ENDCHAR
STARTCHAR U+0021
ENCODING 33
SWIDTH 8000 0
DWIDTH 8 0
BBX 8 16 0 0
BITMAP
00
00
00
30
78
78
78
78
30
30
00
00
30
30
00
00
ENDCHAR
STARTCHAR U+0022
ENCODING 34
SWIDTH 8000 0
DWIDTH 8 0
BBX 8 16 0 0
BITMAP
00
00
00
C6
C6
C6
C6
44
00
00
00
00
00
00
00
00
ENDCHAR
STARTCHAR U+0023
ENCODING 35
SWIDTH 8000 0
DWIDTH 8 0
BBX 8 16 0 0
BITMAP
00
00
00
00
6C
6C
FE
6C
6C
6C
FE
6C
6C
00
00
00
ENDCHAR
STARTCHAR U+0024
ENCODING 36
SWIDTH 8000 0
DWIDTH 8 0
BBX 8 16 0 0
BITMAP
00
00
18
18
7A
C6
C2
C0
7C
06
86
C6
BC
18
18
00
ENDCHAR
STARTCHAR U+0025
ENCODING 37
SWIDTH 8000 0
DWIDTH 8 0
BBX 8 16 0 0
BITMAP
00
00
00
00
40
E2
E6
4C
18
30
64
CE
8E
04
00
00
ENDCHAR
STARTCHAR U+0026
ENCODING 38
SWIDTH 8000 0
DWIDTH 8 0
BBX 8 16 0 0
BITMAP
00
00
00
38
6C
6C
6C
38
72
F6
DC
DC
FC
66
00
00
ENDCHAR
STARTCHAR U+0027
ENCODING 39
SWIDTH 8000 0
DWIDTH 8 0
BBX 8 16 0 0
BITMAP
00
00
00
38
38
38
30
60
00
00
00
00
00
00
00
00
ENDCHAR
STARTCHAR U+0028
ENCODING 40
SWIDTH 8000 0
DWIDTH 8 0
BBX 8 16 0 0
BITMAP
00
00
00
18
30
60
60
60
60
60
60
60
30
18
00
00
ENDCHAR
STARTCHAR U+0029
ENCODING 41
SWIDTH 8000 0
DWIDTH 8 0
BBX 8 16 0 0
BITMAP
00
00
00
30
18
0C
0C
0C
0C
0C
0C
0C
18
30
00
00
ENDCHAR
STARTCHAR U+002A
ENCODING 42
SWIDTH 8000 0
DWIDTH 8 0
BBX 8 16 0 0
BITMAP
00
00
00
00
00
44
6C
38
FE
38
6C
44
00
00
00
00
ENDCHAR
STARTCHAR U+002B
ENCODING 43
SWIDTH 8000 0
DWIDTH 8 0
BBX 8 16 0 0
BITMAP
00
00
00
00
00
30
30
30
30
FC
30
30
30
30
00
00
ENDCHAR
STARTCHAR U+002C
ENCODING 44
SWIDTH 8000 0
DWIDTH 8 0
BBX 8 16 0 0
BITMAP
00
00
00
00
00
00
00
00
00
00
00
70
70
30
30
60
ENDCHAR
STARTCHAR U+002D
ENCODING 45
SWIDTH 8000 0
DWIDTH 8 0
BBX 8 16 0 0
BITMAP
00
00
00
00
00
00
00
00
00
FE
00
00
00
00
00
00
ENDCHAR
STARTCHAR U+002E
ENCODING 46
SWIDTH 8000 0
DWIDTH 8 0
BBX 8 16 0 0
BITMAP
00
00
00
00
00
00
00
00
00
00
00
30
30
30
00
00
ENDCHAR
STARTCHAR U+002F
ENCODING 47
SWIDTH 8000 0
DWIDTH 8 0
BBX 8 16 0 0
BITMAP
00
00
00
00
00
02
06
0C
18
30
60
C0
80
00
00
00
ENDCHAR
STARTCHAR U+0030
ENCODING 48
SWIDTH 8000 0
DWIDTH 8 0
BBX 8 16 0 0
BITMAP
00
00
00
7C
C6
C6
C6
C6
C6
C6
C6
C6
C6
7C
00
00
ENDCHAR
STARTCHAR U+0031
ENCODING 49
SWIDTH 8000 0
DWIDTH 8 0
BBX 8 16 0 0
BITMAP
00
00
00
18
38
78
18
18
18
18
18
18
18
7E
00
00
ENDCHAR
STARTCHAR U+0032
ENCODING 50
SWIDTH 8000 0
DWIDTH 8 0
BBX 8 16 0 0
BITMAP
00
00
00
7C
C6
C6
06
0C
18
30
60
C0
C6
FE
00
00
ENDCHAR
STARTCHAR U+0033
ENCODING 51
SWIDTH 8000 0
DWIDTH 8 0
BBX 8 16 0 0
BITMAP
00
00
00
7C
C6
06
06
06
3C
06
06
06
C6
7C
00
00
ENDCHAR
STARTCHAR U+0034
ENCODING 52
SWIDTH 8000 0
DWIDTH 8 0
BBX 8 16 0 0
BITMAP
00
00
00
0C
1C
3C
6C
6C
CC
CC
FE
0C
0C
1E
00
00
ENDCHAR
STARTCHAR U+0035
ENCODING 53
SWIDTH 8000 0
DWIDTH 8 0
BBX 8 16 0 0
BITMAP
00
00
00
FE
C0
C0
C0
FC
06
06
06
06
C6
7C
00
00
ENDCHAR
STARTCHAR U+0036
ENCODING 54
SWIDTH 8000 0
DWIDTH 8 0
BBX 8 16 0 0
BITMAP
00
00
00
38
60
C0
C0
C0
FC
C6
C6
C6
C6
7C
00
00
ENDCHAR
STARTCHAR U+0037
ENCODING 55
SWIDTH 8000 0
DWIDTH 8 0
BBX 8 16 0 0
BITMAP
00
00
00
FE
C6
06
06
0C
18
30
30
30
30
30
00
00
ENDCHAR
STARTCHAR U+0038
ENCODING 56
SWIDTH 8000 0
DWIDTH 8 0
BBX 8 16 0 0
BITMAP
00
00
00
7C
C6
C6
C6
C6
7C
C6
C6
C6
C6
7C
00
00
ENDCHAR
STARTCHAR U+0039
ENCODING 57
SWIDTH 8000 0
DWIDTH 8 0
BBX 8 16 0 0
BITMAP
00
00
00
7C
C6
C6
C6
C6
7E
06
06
0C
18
70
00
00
ENDCHAR
STARTCHAR U+003A
ENCODING 58
SWIDTH 8000 0
DWIDTH 8 0
BBX 8 16 0 0
BITMAP
00
00
00
00
30
30
30
00
00
00
30
30
30
00
00
00
ENDCHAR
STARTCHAR U+003B
ENCODING 59
SWIDTH 8000 0
DWIDTH 8 0
BBX 8 16 0 0
BITMAP
00
00
00
00
30
30
30
00
00
00
30
30
30
60
00
00
ENDCHAR
STARTCHAR U+003C
ENCODING 60
SWIDTH 8000 0
DWIDTH 8 0
BBX 8 16 0 0
BITMAP
00
00
00
00
0C
18
30
60
C0
C0
60
30
18
0C
00
00
ENDCHAR
STARTCHAR U+003D
ENCODING 61
SWIDTH 8000 0
DWIDTH 8 0
BBX 8 16 0 0
BITMAP
00
00
00
00
00
00
00
FE
00
00
FE
00
00
00
00
00
ENDCHAR
STARTCHAR U+003E
ENCODING 62
SWIDTH 8000 0
DWIDTH 8 0
BBX 8 16 0 0
BITMAP
00
00
00
00
C0
60
30
18
0C
0C
18
30
60
C0
00
00
ENDCHAR
STARTCHAR U+003F
ENCODING 63
SWIDTH 8000 0
DWIDTH 8 0
BBX 8 16 0 0
BITMAP
00
00
00
7C
C6
C6
06
0C
18
18
00
00
18
18
00
00
ENDCHAR
STARTCHAR U+0040
ENCODING 64
SWIDTH 8000 0
DWIDTH 8 0
BBX 8 16 0 0
BITMAP
00
00
00
7C
C6
C6
DE
DE
DE
DE
DC
C0
C0
7C
00
00
ENDCHAR
STARTCHAR U+0041
ENCODING 65
SWIDTH 8000 0
DWIDTH 8 0
BBX 8 16 0 0
BITMAP
00
00
00
10
38
6C
C6
C6
C6
FE
C6
C6
C6
C6
00
00
ENDCHAR
STARTCHAR U+0042
ENCODING 66
SWIDTH 8000 0
DWIDTH 8 0
BBX 8 16 0 0
BITMAP
00
00
00
FC
66
66
66
66
7C
66
66
66
66
FC
00
00
ENDCHAR
STARTCHAR U+0043
ENCODING 67
SWIDTH 8000 0
DWIDTH 8 0
BBX 8 16 0 0
BITMAP
00
00
00
3C
66
C2
C0
C0
C0
C0
C0
C2
66
3C
00
00
ENDCHAR
STARTCHAR U+0044
ENCODING 68
SWIDTH 8000 0
DWIDTH 8 0
BBX 8 16 0 0
BITMAP
00
00
00
F8
6C
66
66
66
66
66
66
66
6C
F8
00
00
ENDCHAR
STARTCHAR U+0045
ENCODING 69
SWIDTH 8000 0
DWIDTH 8 0
BBX 8 16 0 0
BITMAP
00
00
00
FE
66
62
60
68
78
68
60
62
66
FE
00
00
ENDCHAR
STARTCHAR U+0046
ENCODING 70
SWIDTH 8000 0
DWIDTH 8 0
BBX 8 16 0 0
BITMAP
00
00
00
FE
66
62
60
68
78
68
60
60
60
F0
00
00
ENDCHAR
STARTCHAR U+0047
ENCODING 71
SWIDTH 8000 0
DWIDTH 8 0
BBX 8 16 0 0
BITMAP
00
00
00
3C
66
C2
C0
C0
C0
DE
C6
C6
66
3A
00
00
ENDCHAR
STARTCHAR U+0048
ENCODING 72
SWIDTH 8000 0
DWIDTH 8 0
BBX 8 16 0 0
BITMAP
00
00
00
C6
C6
C6
C6
C6
FE
C6
C6
C6
C6
C6
00
00
ENDCHAR
STARTCHAR U+0049
ENCODING 73
SWIDTH 8000 0
DWIDTH 8 0
BBX 8 16 0 0
BITMAP
00
00
00
78
30
30
30
30
30
30
30
30
30
78
00
00
ENDCHAR
STARTCHAR U+004A
ENCODING 74
SWIDTH 8000 0
DWIDTH 8 0
BBX 8 16 0 0
BITMAP
00
00
00
1E
0C
0C
0C
0C
0C
0C
0C
CC
CC
78
00
00
ENDCHAR
STARTCHAR U+004B
ENCODING 75
SWIDTH 8000 0
DWIDTH 8 0
BBX 8 16 0 0
BITMAP
00
00
00
E6
66
66
6C
6C
78
6C
6C
66
66
E6
00
00
ENDCHAR
STARTCHAR U+004C
ENCODING 76
SWIDTH 8000 0
DWIDTH 8 0
BBX 8 16 0 0
BITMAP
00
00
00
F0
60
60
60
60
60
60
60
62
66
FE
00
00
ENDCHAR
STARTCHAR U+004D
ENCODING 77
SWIDTH 8000 0
DWIDTH 8 0
BBX 8 16 0 0
BITMAP
00
00
00
C6
EE
FE
FE
D6
D6
C6
C6
C6
C6
C6
00
00
ENDCHAR
STARTCHAR U+004E
ENCODING 78
SWIDTH 8000 0
DWIDTH 8 0
BBX 8 16 0 0
BITMAP
00
00
00
C6
C6
E6
F6
FE
DE
CE
C6
C6
C6
C6
00
00
ENDCHAR
STARTCHAR U+004F
ENCODING 79
SWIDTH 8000 0
DWIDTH 8 0
BBX 8 16 0 0
BITMAP
00
00
00
38
6C
C6
C6
C6
C6
C6
C6
C6
6C
38
00
00
ENDCHAR
STARTCHAR U+0050
ENCODING 80
SWIDTH 8000 0
DWIDTH 8 0
BBX 8 16 0 0
BITMAP
00
00
00
FC
66
66
66
66
7C
60
60
60
60
F0
00
00
ENDCHAR
STARTCHAR U+0051
ENCODING 81
SWIDTH 8000 0
DWIDTH 8 0
BBX 8 16 0 0
BITMAP
00
00
00
7C
C6
C6
C6
C6
C6
C6
D6
DE
7C
0C
06
00
ENDCHAR
STARTCHAR U+0052
ENCODING 82
SWIDTH 8000 0
DWIDTH 8 0
BBX 8 16 0 0
BITMAP
00
00
00
FC
66
66
66
66
7C
6C
66
66
66
E6
00
00
ENDCHAR
STARTCHAR U+0053
ENCODING 83
SWIDTH 8000 0
DWIDTH 8 0
BBX 8 16 0 0
BITMAP
00
00
00
7C
C6
C6
C0
60
38
0C
06
C6
C6
7C
00
00
ENDCHAR
STARTCHAR U+0054
ENCODING 84
SWIDTH 8000 0
DWIDTH 8 0
BBX 8 16 0 0
BITMAP
00
00
00
FC
B4
B4
30
30
30
30
30
30
30
78
00
00
ENDCHAR
STARTCHAR U+0055
ENCODING 85
SWIDTH 8000 0
DWIDTH 8 0
BBX 8 16 0 0
BITMAP
00
00
00
C6
C6
C6
C6
C6
C6
C6
C6
C6
C6
7C
00
00
ENDCHAR
STARTCHAR U+0056
ENCODING 86
SWIDTH 8000 0
DWIDTH 8 0
BBX 8 16 0 0
BITMAP
00
00
00
C6
C6
C6
C6
C6
C6
C6
C6
6C
38
10
00
00
ENDCHAR
STARTCHAR U+0057
ENCODING 87
SWIDTH 8000 0
DWIDTH 8 0
BBX 8 16 0 0
BITMAP
00
00
00
C6
C6
C6
C6
D6
D6
D6
FE
FE
6C
6C
00
00
ENDCHAR
STARTCHAR U+0058
ENCODING 88
SWIDTH 8000 0
DWIDTH 8 0
BBX 8 16 0 0
BITMAP
00
00
00
C6
C6
6C
6C
38
38
38
6C
6C
C6
C6
00
00
ENDCHAR
STARTCHAR U+0059
ENCODING 89
SWIDTH 8000 0
DWIDTH 8 0
BBX 8 16 0 0
BITMAP
00
00
00
CC
CC
CC
CC
CC
78
30
30
30
30
78
00
00
ENDCHAR
STARTCHAR U+005A
ENCODING 90
SWIDTH 8000 0
DWIDTH 8 0
BBX 8 16 0 0
BITMAP
00
00
00
FE
C6
8C
0C
18
30
30
60
62
C6
FE
00
00
ENDCHAR
STARTCHAR U+005B
ENCODING 91
SWIDTH 8000 0
DWIDTH 8 0
BBX 8 16 0 0
BITMAP
00
00
00
78
60
60
60
60
60
60
60
60
60
78
00
00
ENDCHAR
STARTCHAR U+005C
ENCODING 92
SWIDTH 8000 0
DWIDTH 8 0
BBX 8 16 0 0
BITMAP
00
00
00
00
00
40
60
30
18
0C
06
03
01
00
00
00
ENDCHAR
STARTCHAR U+005D
ENCODING 93
SWIDTH 8000 0
DWIDTH 8 0
BBX 8 16 0 0
BITMAP
00
00
00
78
18
18
18
18
18
18
18
18
18
78
00
00
ENDCHAR
STARTCHAR U+005E
ENCODING 94
SWIDTH 8000 0
DWIDTH 8 0
BBX 8 16 0 0
BITMAP
00
00
10
38
6C
C6
C6
00
00
00
00
00
00
00
00
00
ENDCHAR
STARTCHAR U+005F
ENCODING 95
SWIDTH 8000 0
DWIDTH 8 0
BBX 8 16 0 0
BITMAP
00
00
00
00
00
00
00
00
00
00
00
00
00
00
FE
00
ENDCHAR
STARTCHAR U+0060
ENCODING 96
SWIDTH 8000 0
DWIDTH 8 0
BBX 8 16 0 0
BITMAP
00
00
30
60
60
78
38
00
00
00
00
00
00
00
00
00
ENDCHAR
STARTCHAR U+0061
ENCODING 97
SWIDTH 8000 0
DWIDTH 8 0
BBX 8 16 0 0
BITMAP
00
00
00
00
00
00
00
78
0C
7C
CC
CC
CC
76
00
00
ENDCHAR
STARTCHAR U+0062
ENCODING 98
SWIDTH 8000 0
DWIDTH 8 0
BBX 8 16 0 0
BITMAP
00
00
00
E0
60
60
60
7C
66
66
66
66
66
DC
00
00
ENDCHAR
STARTCHAR U+0063
ENCODING 99
SWIDTH 8000 0
DWIDTH 8 0
BBX 8 16 0 0
BITMAP
00
00
00
00
00
00
00
7C
C6
C0
C0
C0
C6
7C
00
00
ENDCHAR
STARTCHAR U+0064
ENCODING 100
SWIDTH 8000 0
DWIDTH 8 0
BBX 8 16 0 0
BITMAP
00
00
00
1C
0C
0C
0C
7C
CC
CC
CC
CC
CC
76
00
00
ENDCHAR
STARTCHAR U+0065
ENCODING 101
SWIDTH 8000 0
DWIDTH 8 0
BBX 8 16 0 0
BITMAP
00
00
00
00
00
00
00
7C
C6
C6
FE
C0
C6
7C
00
00
ENDCHAR
STARTCHAR U+0066
ENCODING 102
SWIDTH 8000 0
DWIDTH 8 0
BBX 8 16 0 0
BITMAP
00
00
00
38
6C
64
60
60
F8
60
60
60
60
F0
00
00
ENDCHAR
STARTCHAR U+0067
ENCODING 103
SWIDTH 8000 0
DWIDTH 8 0
BBX 8 16 0 0
BITMAP
00
00
00
00
00
00
00
76
CC
CC
CC
CC
7C
0C
CC
78
ENDCHAR
STARTCHAR U+0068
ENCODING 104
SWIDTH 8000 0
DWIDTH 8 0
BBX 8 16 0 0
BITMAP
00
00
00
E0
60
60
60
6C
76
66
66
66
66
E6
00
00
ENDCHAR
STARTCHAR U+0069
ENCODING 105
SWIDTH 8000 0
DWIDTH 8 0
BBX 8 16 0 0
BITMAP
00
00
00
18
18
00
00
38
18
18
18
18
18
3C
00
00
ENDCHAR
STARTCHAR U+006A
ENCODING 106
SWIDTH 8000 0
DWIDTH 8 0
BBX 8 16 0 0
BITMAP
00
00
00
0C
0C
00
00
1C
0C
0C
0C
0C
0C
CC
CC
78
ENDCHAR
STARTCHAR U+006B
ENCODING 107
SWIDTH 8000 0
DWIDTH 8 0
BBX 8 16 0 0
BITMAP
00
00
00
E0
60
60
60
66
6C
78
78
6C
66
E6
00
00
ENDCHAR
STARTCHAR U+006C
ENCODING 108
SWIDTH 8000 0
DWIDTH 8 0
BBX 8 16 0 0
BITMAP
00
00
00
38
18
18
18
18
18
18
18
18
18
3C
00
00
ENDCHAR
STARTCHAR U+006D
ENCODING 109
SWIDTH 8000 0
DWIDTH 8 0
BBX 8 16 0 0
BITMAP
00
00
00
00
00
00
00
CC
FE
D6
D6
D6
D6
D6
00
00
ENDCHAR
STARTCHAR U+006E
ENCODING 110
SWIDTH 8000 0
DWIDTH 8 0
BBX 8 16 0 0
BITMAP
00
00
00
00
00
00
00
DC
66
66
66
66
66
66
00
00
ENDCHAR
STARTCHAR U+006F
ENCODING 111
SWIDTH 8000 0
DWIDTH 8 0
BBX 8 16 0 0
BITMAP
00
00
00
00
00
00
00
7C
C6
C6
C6
C6
C6
7C
00
00
ENDCHAR
STARTCHAR U+0070
ENCODING 112
SWIDTH 8000 0
DWIDTH 8 0
BBX 8 16 0 0
BITMAP
00
00
00
00
00
00
00
DC
66
66
66
66
7C
60
60
F0
ENDCHAR
STARTCHAR U+0071
ENCODING 113
SWIDTH 8000 0
DWIDTH 8 0
BBX 8 16 0 0
BITMAP
00
00
00
00
00
00
00
76
CC
CC
CC
CC
7C
0C
0C
1E
ENDCHAR
STARTCHAR U+0072
ENCODING 114
SWIDTH 8000 0
DWIDTH 8 0
BBX 8 16 0 0
BITMAP
00
00
00
00
00
00
00
DC
76
66
60
60
60
F0
00
00
ENDCHAR
STARTCHAR U+0073
ENCODING 115
SWIDTH 8000 0
DWIDTH 8 0
BBX 8 16 0 0
BITMAP
00
00
00
00
00
00
00
7C
C6
E0
38
0E
C6
7C
00
00
ENDCHAR
STARTCHAR U+0074
ENCODING 116
SWIDTH 8000 0
DWIDTH 8 0
BBX 8 16 0 0
BITMAP
00
00
00
10
30
30
30
FC
30
30
30
30
36
1C
00
00
ENDCHAR
STARTCHAR U+0075
ENCODING 117
SWIDTH 8000 0
DWIDTH 8 0
BBX 8 16 0 0
BITMAP
00
00
00
00
00
00
00
CC
CC
CC
CC
CC
CC
76
00
00
ENDCHAR
STARTCHAR U+0076
ENCODING 118
SWIDTH 8000 0
DWIDTH 8 0
BBX 8 16 0 0
BITMAP
00
00
00
00
00
00
00
C6
C6
C6
C6
6C
38
10
00
00
ENDCHAR
STARTCHAR U+0077
ENCODING 119
SWIDTH 8000 0
DWIDTH 8 0
BBX 8 16 0 0
BITMAP
00
00
00
00
00
00
00
C6
C6
D6
D6
D6
FE
6C
00
00
ENDCHAR
STARTCHAR U+0078
ENCODING 120
SWIDTH 8000 0
DWIDTH 8 0
BBX 8 16 0 0
BITMAP
00
00
00
00
00
00
00
C6
C6
6C
38
6C
C6
C6
00
00
ENDCHAR
STARTCHAR U+0079
ENCODING 121
SWIDTH 8000 0
DWIDTH 8 0
BBX 8 16 0 0
BITMAP
00
00
00
00
00
00
00
C6
C6
C6
C6
C6
7E
06
0C
78
ENDCHAR
STARTCHAR U+007A
ENCODING 122
SWIDTH 8000 0
DWIDTH 8 0
BBX 8 16 0 0
BITMAP
00
00
00
00
00
00
00
FE
CC
18
30
60
C6
FE
00
00
ENDCHAR
STARTCHAR U+007B
ENCODING 123
SWIDTH 8000 0
DWIDTH 8 0
BBX 8 16 0 0
BITMAP
00
00
00
1C
30
30
30
30
E0
30
30
30
30
1C
00
00
ENDCHAR
STARTCHAR U+007C
ENCODING 124
SWIDTH 8000 0
DWIDTH 8 0
BBX 8 16 0 0
BITMAP
00
00
00
30
30
30
30
30
00
30
30
30
30
30
00
00
ENDCHAR
STARTCHAR U+007D
ENCODING 125
SWIDTH 8000 0
DWIDTH 8 0
BBX 8 16 0 0
BITMAP
00
00
00
E0
30
30
30
30
1C
30
30
30
30
E0
00
00
ENDCHAR
STARTCHAR U+007E
ENCODING 126
SWIDTH 8000 0
DWIDTH 8 0
BBX 8 16 0 0
BITMAP
00
00
00
00
76
DC
00
00
00
00
00
00
00
00
00
00
ENDCHAR
STARTCHAR U+2302
ENCODING 8962
SWIDTH 8000 0
DWIDTH 8 0
BBX 8 16 0 0
BITMAP
00
00
00
00
00
10
38
38
6C
6C
C6
C6
FE
00
00
00
ENDCHAR
STARTCHAR U+0000
ENCODING 0
SWIDTH 8000 0
DWIDTH 8 0
BBX 8 16 0 0
BITMAP
00
00
00
00
00
00
00
00
00
7C
00
04
00
04
00
00
ENDCHAR
STARTCHAR U+263A
ENCODING 9786
SWIDTH 8000 0
DWIDTH 8 0
BBX 8 16 0 0
BITMAP
00
10
00
20
00
C0
00
00
00
00
00
00
00
00
00
08
ENDCHAR
STARTCHAR U+263B
ENCODING 9787
SWIDTH 8000 0
DWIDTH 8 0
BBX 8 16 0 0
BITMAP
00
00
00
00
00
00
00
00
00
FE
00
22
00
22
00
00
ENDCHAR
STARTCHAR U+2665
ENCODING 9829
SWIDTH 8000 0
DWIDTH 8 0
BBX 8 16 0 0
BITMAP
00
44
00
88
00
10
00
00
00
00
00
00
00
00
00
44
ENDCHAR
STARTCHAR U+2666
ENCODING 9830
SWIDTH 8000 0
DWIDTH 8 0
BBX 8 16 0 0
BITMAP
00
00
00
00
00
00
00
00
00
80
00
40
00
40
00
00
ENDCHAR
STARTCHAR U+2663
ENCODING 9827
SWIDTH 8000 0
DWIDTH 8 0
BBX 8 16 0 0
BITMAP
00
46
00
78
00
00
00
00
00
00
00
00
00
00
00
40
ENDCHAR
STARTCHAR U+2660
ENCODING 9824
SWIDTH 8000 0
DWIDTH 8 0
BBX 8 16 0 0
BITMAP
00
00
00
00
00
00
00
00
00
00
00
FC
00
40
00
00
ENDCHAR
STARTCHAR U+2022
ENCODING 8226
SWIDTH 8000 0
DWIDTH 8 0
BBX 8 16 0 0
BITMAP
00
40
00
46
00
78
00
00
00
00
00
00
00
00
00
40
ENDCHAR
STARTCHAR U+25D8
ENCODING 9688
SWIDTH 8000 0
DWIDTH 8 0
BBX 8 16 0 0
BITMAP
00
00
00
00
00
00
00
00
00
00
00
FE
00
48
00
00
ENDCHAR
STARTCHAR U+25CB
ENCODING 9675
SWIDTH 8000 0
DWIDTH 8 0
BBX 8 16 0 0
BITMAP
00
48
00
48
00
7E
00
00
00
00
00
00
00
00
00
48
ENDCHAR
STARTCHAR U+25D9
ENCODING 9689
SWIDTH 8000 0
DWIDTH 8 0
BBX 8 16 0 0
BITMAP
00
00
00
00
00
00
00
00
00
7E
00
02
00
02
00
00
ENDCHAR
STARTCHAR U+2642
ENCODING 9794
SWIDTH 8000 0
DWIDTH 8 0
BBX 8 16 0 0
BITMAP
00
40
00
46
00
78
00
00
00
00
00
00
00
00
00
7E
ENDCHAR
STARTCHAR U+2640
ENCODING 9792
SWIDTH 8000 0
DWIDTH 8 0
BBX 8 16 0 0
BITMAP
00
00
00
00
00
00
00
80
00
7E
00
42
00
42
00
00
ENDCHAR
STARTCHAR U+266A
ENCODING 9834
SWIDTH 8000 0
DWIDTH 8 0
BBX 8 16 0 0
BITMAP
00
42
00
7E
00
00
00
00
00
00
00
00
00
00
00
42
ENDCHAR
STARTCHAR U+266B
ENCODING 9835
SWIDTH 8000 0
DWIDTH 8 0
BBX 8 16 0 0
BITMAP
00
00
00
00
00
00
00
02
00
82
00
42
00
42
00
00
ENDCHAR
STARTCHAR U+263C
ENCODING 9788
SWIDTH 8000 0
DWIDTH 8 0
BBX 8 16 0 0
BITMAP
00
42
00
7E
00
00
00
00
00
00
00
00
00
00
00
7E
ENDCHAR
STARTCHAR U+F600
ENCODING 62976
SWIDTH 16000 0
DWIDTH 16 0
BBX 16 16 0 0
BITMAP
0000
0000
0000
0000
0000
0000
0000
0000
0000
0000
0000
0000
0000
0000
0000
0000
ENDCHAR
STARTCHAR U+F601
ENCODING 62977
SWIDTH 16000 0
DWIDTH 16 0
BBX 16 16 0 0
BITMAP
0000
0060
0030
0030
0030
0030
0030
003C
0030
0030
0030
0030
0030
0030
0020
0000
ENDCHAR
STARTCHAR U+F602
ENCODING 62978
SWIDTH 16000 0
DWIDTH 16 0
BBX 16 16 0 0
BITMAP
0000
0018
00CC
006C
006C
006C
006C
007C
006C
006C
006C
006C
004C
000C
0008
0000
ENDCHAR
STARTCHAR U+F603
ENCODING 62979
SWIDTH 16000 0
DWIDTH 16 0
BBX 16 16 0 0
BITMAP
0000
0030
0018
0018
0018
0018
0018
0018
0018
0018
0018
0018
0018
0018
0010
0000
ENDCHAR
STARTCHAR U+F604
ENCODING 62980
SWIDTH 16000 0
DWIDTH 16 0
BBX 16 16 0 0
BITMAP
0000
0030
0018
0018
0018
0018
0018
0078
0018
0018
0018
0018
0018
0018
0010
0000
ENDCHAR
STARTCHAR U+F605
ENCODING 62981
SWIDTH 16000 0
DWIDTH 16 0
BBX 16 16 0 0
BITMAP
0000
0018
00CC
006C
006C
006C
006C
01EC
006C
006C
006C
006C
004C
000C
0008
0000
ENDCHAR
STARTCHAR U+F606
ENCODING 62982
SWIDTH 16000 0
DWIDTH 16 0
BBX 16 16 0 0
BITMAP
0000
0060
0030
0030
0030
0030
003C
0030
003C
0030
0030
0030
0030
0030
0020
0000
ENDCHAR
STARTCHAR U+F607
ENCODING 62983
SWIDTH 16000 0
DWIDTH 16 0
BBX 16 16 0 0
BITMAP
0000
0030
0018
0018
0018
0018
0078
0018
0078
0018
0018
0018
0018
0018
0010
0000
ENDCHAR
STARTCHAR U+F608
ENCODING 62984
SWIDTH 16000 0
DWIDTH 16 0
BBX 16 16 0 0
BITMAP
0000
0018
00CC
006C
006C
006C
007C
006C
007C
006C
006C
006C
004C
000C
0008
0000
ENDCHAR
STARTCHAR U+F609
ENCODING 62985
SWIDTH 16000 0
DWIDTH 16 0
BBX 16 16 0 0
BITMAP
0000
0018
00CC
006C
006C
006C
01EC
006C
01EC
006C
006C
006C
004C
000C
0008
0000
ENDCHAR
STARTCHAR U+F60A
ENCODING 62986
SWIDTH 16000 0
DWIDTH 16 0
BBX 16 16 0 0
BITMAP
0000
0000
0000
0000
0000
0000
0000
0000
0100
0180
0180
0180
3FFC
0000
0000
0000
ENDCHAR
STARTCHAR U+F60B
ENCODING 62987
SWIDTH 16000 0
DWIDTH 16 0
BBX 16 16 0 0
BITMAP
0000
0000
0000
0000
0000
0000
0000
0000
0000
0440
0660
0660
3FFC
0000
0000
0000
ENDCHAR
STARTCHAR U+F60C
ENCODING 62988
SWIDTH 16000 0
DWIDTH 16 0
BBX 16 16 0 0
BITMAP
0000
0000
0000
0000
0000
0000
0000
0000
3FFC
0180
0180
0180
0180
0180
0100
0000
ENDCHAR
STARTCHAR U+F60D
ENCODING 62989
SWIDTH 16000 0
DWIDTH 16 0
BBX 16 16 0 0
BITMAP
0000
0000
0000
0000
0000
0000
0000
0000
3FFC
0660
0660
0660
0660
0660
0440
0000
ENDCHAR
STARTCHAR U+F60E
ENCODING 62990
SWIDTH 16000 0
DWIDTH 16 0
BBX 16 16 0 0
BITMAP
0000
0000
0000
0000
0000
0000
0000
0000
0000
0000
0000
3FFC
0000
0000
0000
0000
ENDCHAR
STARTCHAR U+F60F
ENCODING 62991
SWIDTH 16000 0
DWIDTH 16 0
BBX 16 16 0 0
BITMAP
0000
0060
0030
0030
0030
0030
0030
0030
0838
0C30
7FF0
0030
0030
0030
0020
0000
ENDCHAR
STARTCHAR U+F610
ENCODING 62992
SWIDTH 16000 0
DWIDTH 16 0
BBX 16 16 0 0
BITMAP
0000
0018
004C
006C
006C
006C
006C
006C
087C
0C6C
7FEC
006C
006C
004C
0008
0000
ENDCHAR
STARTCHAR U+F611
ENCODING 62993
SWIDTH 16000 0
DWIDTH 16 0
BBX 16 16 0 0
BITMAP
0000
0060
0030
0030
0030
0030
0030
0030
0830
0C30
7FF0
0030
0030
0030
0020
0000
ENDCHAR
STARTCHAR U+F612
ENCODING 62994
SWIDTH 16000 0
DWIDTH 16 0
BBX 16 16 0 0
BITMAP
0000
0060
0030
0030
0030
0030
0030
0030
0030
7FF0
0C30
0C30
0C30
0830
0020
0000
ENDCHAR
STARTCHAR U+F613
ENCODING 62995
SWIDTH 16000 0
DWIDTH 16 0
BBX 16 16 0 0
BITMAP
0000
0060
0030
0030
0030
0030
0030
0030
0030
7FF0
0C30
0CF0
0C30
0830
0020
0000
ENDCHAR
STARTCHAR U+F614
ENCODING 62996
SWIDTH 16000 0
DWIDTH 16 0
BBX 16 16 0 0
BITMAP
0000
0018
004C
006C
006C
006C
006C
006C
006C
7FEC
0C6C
0DEC
0C6C
084C
0008
0000
ENDCHAR
STARTCHAR U+F615
ENCODING 62997
SWIDTH 16000 0
DWIDTH 16 0
BBX 16 16 0 0
BITMAP
0000
0060
0030
0030
0030
0030
0030
0030
0030
0030
7FF0
0030
0030
0030
0020
0000
ENDCHAR
STARTCHAR U+F616
ENCODING 62998
SWIDTH 16000 0
DWIDTH 16 0
BBX 16 16 0 0
BITMAP
0000
0060
0030
0030
0030
0030
003C
0030
0030
0030
0020
0000
0000
0000
0000
0000
ENDCHAR
STARTCHAR U+F617
ENCODING 62999
SWIDTH 16000 0
DWIDTH 16 0
BBX 16 16 0 0
BITMAP
0000
0018
004C
006C
006C
006C
007C
006C
006C
004C
0008
0000
0000
0000
0000
0000
ENDCHAR
STARTCHAR U+F618
ENCODING 63000
SWIDTH 16000 0
DWIDTH 16 0
BBX 16 16 0 0
BITMAP
0000
0060
0030
0030
0030
0030
0030
0030
0030
0030
0020
0000
0000
0000
0000
0000
ENDCHAR
STARTCHAR U+F619
ENCODING 63001
SWIDTH 16000 0
DWIDTH 16 0
BBX 16 16 0 0
BITMAP
0000
0060
0030
0030
0030
00F0
0030
0030
0030
0030
0020
0000
0000
0000
0000
0000
ENDCHAR
STARTCHAR U+F61A
ENCODING 63002
SWIDTH 16000 0
DWIDTH 16 0
BBX 16 16 0 0
BITMAP
0000
0018
004C
006C
006C
01EC
006C
006C
006C
004C
0008
0000
0000
0000
0000
0000
ENDCHAR
STARTCHAR U+F61B
ENCODING 63003
SWIDTH 16000 0
DWIDTH 16 0
BBX 16 16 0 0
BITMAP
0000
0060
0030
0030
0030
003C
0030
003C
0030
0030
0020
0000
0000
0000
0000
0000
ENDCHAR
STARTCHAR U+F61C
ENCODING 63004
SWIDTH 16000 0
DWIDTH 16 0
BBX 16 16 0 0
BITMAP
0000
0060
0030
0030
00F0
0030
00F0
0030
0030
0030
0020
0000
0000
0000
0000
0000
ENDCHAR
STARTCHAR U+F61D
ENCODING 63005
SWIDTH 16000 0
DWIDTH 16 0
BBX 16 16 0 0
BITMAP
0000
0018
004C
006C
007C
006C
007C
006C
006C
004C
0008
0000
0000
0000
0000
0000
ENDCHAR
STARTCHAR U+F61E
ENCODING 63006
SWIDTH 16000 0
DWIDTH 16 0
BBX 16 16 0 0
BITMAP
0000
0018
004C
006C
01EC
006C
01EC
006C
006C
004C
0008
0000
0000
0000
0000
0000
ENDCHAR
STARTCHAR U+F61F
ENCODING 63007
SWIDTH 16000 0
DWIDTH 16 0
BBX 16 16 0 0
BITMAP
0000
0000
0000
0000
0000
0000
0100
0180
3FFC
0000
0000
0000
0000
0000
0000
0000
ENDCHAR
STARTCHAR U+F620
ENCODING 63008
SWIDTH 16000 0
DWIDTH 16 0
BBX 16 16 0 0
BITMAP
0000
0000
0000
0000
0000
0000
0240
0360
3FFC
0000
0000
0000
0000
0000
0000
0000
ENDCHAR
STARTCHAR U+F621
ENCODING 63009
SWIDTH 16000 0
DWIDTH 16 0
BBX 16 16 0 0
BITMAP
0000
0000
0000
0000
0000
0000
0000
3FFC
0180
0100
0000
0000
0000
0000
0000
0000
ENDCHAR
STARTCHAR U+F622
ENCODING 63010
SWIDTH 16000 0
DWIDTH 16 0
BBX 16 16 0 0
BITMAP
0000
0000
0000
0000
0000
0000
0000
0000
3FFC
0660
0240
0000
0000
0000
0000
0000
ENDCHAR
STARTCHAR U+F623
ENCODING 63011
SWIDTH 16000 0
DWIDTH 16 0
BBX 16 16 0 0
BITMAP
0000
0000
0000
0000
0000
0000
0000
0000
3FFC
0000
0000
0000
0000
0000
0000
0000
ENDCHAR
STARTCHAR U+F624
ENCODING 63012
SWIDTH 16000 0
DWIDTH 16 0
BBX 16 16 0 0
BITMAP
0000
0060
0030
0030
0030
0030
083C
0C30
7FF0
0030
0020
0000
0000
0000
0000
0000
ENDCHAR
STARTCHAR U+F625
ENCODING 63013
SWIDTH 16000 0
DWIDTH 16 0
BBX 16 16 0 0
BITMAP
0000
0018
004C
006C
006C
006C
087C
0C6C
7FEC
004C
0008
0000
0000
0000
0000
0000
ENDCHAR
STARTCHAR U+F626
ENCODING 63014
SWIDTH 16000 0
DWIDTH 16 0
BBX 16 16 0 0
BITMAP
0000
0060
0030
0030
0030
0030
0830
0C30
7FF0
0030
0020
0000
0000
0000
0000
0000
ENDCHAR
STARTCHAR U+F627
ENCODING 63015
SWIDTH 16000 0
DWIDTH 16 0
BBX 16 16 0 0
BITMAP
0000
0060
0030
0030
0030
0030
0030
0030
7FF0
0330
0220
0000
0000
0000
0000
0000
ENDCHAR
STARTCHAR U+F628
ENCODING 63016
SWIDTH 16000 0
DWIDTH 16 0
BBX 16 16 0 0
BITMAP
0000
0060
0030
0030
0030
0030
0030
7FF0
0330
0230
0220
0000
0000
0000
0000
0000
ENDCHAR
STARTCHAR U+F629
ENCODING 63017
SWIDTH 16000 0
DWIDTH 16 0
BBX 16 16 0 0
BITMAP
0000
0018
004C
006C
006C
006C
006C
006C
7DEC
304C
2008
0000
0000
0000
0000
0000
ENDCHAR
STARTCHAR U+F62A
ENCODING 63018
SWIDTH 16000 0
DWIDTH 16 0
BBX 16 16 0 0
BITMAP
0000
0060
0030
0030
0030
0030
0030
0030
7FF0
0030
0020
0000
0000
0000
0000
0000
ENDCHAR
STARTCHAR U+F62B
ENCODING 63019
SWIDTH 16000 0
DWIDTH 16 0
BBX 16 16 0 0
BITMAP
0000
0000
0000
0000
3F00
0300
0300
0600
0600
0C00
1800
6000
0000
0000
0000
0000
ENDCHAR
STARTCHAR U+F62C
ENCODING 63020
SWIDTH 16000 0
DWIDTH 16 0
BBX 16 16 0 0
BITMAP
0000
0000
0000
0000
7E00
3300
3300
3300
3300
3200
1F00
0000
0000
0000
0000
0000
ENDCHAR
STARTCHAR U+F62D
ENCODING 63021
SWIDTH 16000 0
DWIDTH 16 0
BBX 16 16 0 0
BITMAP
0000
0000
0000
0000
6600
3300
3300
3F00
3300
3300
1E00
0000
0000
0000
0000
0000
ENDCHAR
STARTCHAR U+F62E
ENCODING 63022
SWIDTH 16000 0
DWIDTH 16 0
BBX 16 16 0 0
BITMAP
0000
0000
0000
0000
0C00
0C00
0C00
0C00
1E00
3300
2300
0000
0000
0000
0000
0000
ENDCHAR
STARTCHAR U+F62F
ENCODING 63023
SWIDTH 16000 0
DWIDTH 16 0
BBX 16 16 0 0
BITMAP
0000
0000
0000
0000
7F00
3000
3000
3E00
3000
3000
1F80
0000
0000
0000
0000
0000
ENDCHAR
STARTCHAR U+F630
ENCODING 63024
SWIDTH 16000 0
DWIDTH 16 0
BBX 16 16 0 0
BITMAP
0000
0000
0000
0000
7F00
1400
3600
3600
3600
3600
7F00
0000
0000
0000
0000
0000
ENDCHAR
STARTCHAR U+F631
ENCODING 63025
SWIDTH 16000 0
DWIDTH 16 0
BBX 16 16 0 0
BITMAP
0000
0000
0C00
3F00
0000
1E00
3300
3300
3300
1E00
0000
0000
0000
0000
0000
0000
ENDCHAR
STARTCHAR U+F632
ENCODING 63026
SWIDTH 16000 0
DWIDTH 16 0
BBX 16 16 0 0
BITMAP
0000
0000
0000
0000
3F00
0C00
0C00
0C00
1E00
3300
2300
0000
0000
0000
0000
0000
ENDCHAR
STARTCHAR U+F633
ENCODING 63027
SWIDTH 16000 0
DWIDTH 16 0
BBX 16 16 0 0
BITMAP
0000
0000
0000
0000
6000
3000
3000
3000
3000
3000
1F80
0000
0000
0000
0000
0000
ENDCHAR
STARTCHAR U+F634
ENCODING 63028
SWIDTH 16000 0
DWIDTH 16 0
BBX 16 16 0 0
BITMAP
0000
0000
0000
0000
7F00
3000
3000
3000
3000
3000
1F80
0000
0000
0000
0000
0000
ENDCHAR
STARTCHAR U+F635
ENCODING 63029
SWIDTH 16000 0
DWIDTH 16 0
BBX 16 16 0 0
BITMAP
0000
0000
0000
0000
3E00
0300
0300
3F00
3000
3000
1F80
0000
0000
0000
0000
0000
ENDCHAR
STARTCHAR U+F636
ENCODING 63030
SWIDTH 16000 0
DWIDTH 16 0
BBX 16 16 0 0
BITMAP
0000
0000
0000
0000
3C00
6600
6600
6600
6600
6600
3C00
0000
0000
0000
0000
0000
ENDCHAR
STARTCHAR U+F637
ENCODING 63031
SWIDTH 16000 0
DWIDTH 16 0
BBX 16 16 0 0
BITMAP
0000
0000
0000
1800
7E00
1800
1800
1800
3C00
6600
6600
0000
0000
0000
0000
0000
ENDCHAR
STARTCHAR U+F638
ENCODING 63032
SWIDTH 16000 0
DWIDTH 16 0
BBX 16 16 0 0
BITMAP
0000
0000
0000
0000
3F00
0300
0300
1E00
0600
0C00
1800
6000
0000
0000
0000
0000
ENDCHAR
STARTCHAR U+F639
ENCODING 63033
SWIDTH 16000 0
DWIDTH 16 0
BBX 16 16 0 0
BITMAP
0000
0000
0000
0000
EF00
3300
3300
3300
6600
6600
8C00
1000
0000
0000
0000
0000
ENDCHAR
STARTCHAR U+F63A
ENCODING 63034
SWIDTH 16000 0
DWIDTH 16 0
BBX 16 16 0 0
BITMAP
0000
0000
0000
0000
3600
3600
3600
7E00
4F00
1980
1180
0000
0000
0000
0000
0000
ENDCHAR
STARTCHAR U+F63B
ENCODING 63035
SWIDTH 16000 0
DWIDTH 16 0
BBX 16 16 0 0
BITMAP
0000
0000
0000
0000
7700
6600
6600
6600
6600
6600
3B80
0000
0000
0000
0000
0000
ENDCHAR
STARTCHAR U+F63C
ENCODING 63036
SWIDTH 16000 0
DWIDTH 16 0
BBX 16 16 0 0
BITMAP
0000
0000
0000
0000
4100
6980
6D80
7F80
6D80
6D80
3F00
0000
0000
0000
0000
0000
ENDCHAR
STARTCHAR U+F63D
ENCODING 63037
SWIDTH 16000 0
DWIDTH 16 0
BBX 16 16 0 0
BITMAP
0000
0000
0000
0000
7F00
3600
3600
7E00
4F00
1980
1180
0000
0000
0000
0000
0000
ENDCHAR
STARTCHAR U+F63E
ENCODING 63038
SWIDTH 16000 0
DWIDTH 16 0
BBX 16 16 0 0
BITMAP
0000
0000
0FE0
0030
0030
0030
0030
0020
0000
0000
0000
0000
0000
0000
0000
0000
ENDCHAR
STARTCHAR U+F63F
ENCODING 63039
SWIDTH 16000 0
DWIDTH 16 0
BBX 16 16 0 0
BITMAP
0000
0000
0FE0
0C30
0C30
0C20
07F0
0000
0000
0000
0000
0000
0000
0000
0000
0000
ENDCHAR
STARTCHAR U+F640
ENCODING 63040
SWIDTH 16000 0
DWIDTH 16 0
BBX 16 16 0 0
BITMAP
0000
0820
0C30
0FF0
0C30
0C30
07E0
0000
0000
0000
0000
0000
0000
0000
0000
0000
ENDCHAR
STARTCHAR U+F641
ENCODING 63041
SWIDTH 16000 0
DWIDTH 16 0
BBX 16 16 0 0
BITMAP
0000
0000
0180
0180
03C0
0660
0C30
0000
0000
0000
0000
0000
0000
0000
0000
0000
ENDCHAR
STARTCHAR U+F642
ENCODING 63042
SWIDTH 16000 0
DWIDTH 16 0
BBX 16 16 0 0
BITMAP
0000
0000
1FE0
0C00
0FC0
0C00
07F0
0000
0000
0000
0000
0000
0000
0000
0000
0000
ENDCHAR
STARTCHAR U+F643
ENCODING 63043
SWIDTH 16000 0
DWIDTH 16 0
BBX 16 16 0 0
BITMAP
0000
0000
0FF0
0460
0660
0640
0FF0
0000
0000
0000
0000
0000
0000
0000
0000
0000
ENDCHAR
STARTCHAR U+F644
ENCODING 63044
SWIDTH 16000 0
DWIDTH 16 0
BBX 16 16 0 0
BITMAP
0000
0180
1FF8
0000
07E0
0C30
0C30
07E0
0000
0000
0000
0000
0000
0000
0000
0000
ENDCHAR
STARTCHAR U+F645
ENCODING 63045
SWIDTH 16000 0
DWIDTH 16 0
BBX 16 16 0 0
BITMAP
0000
0000
0FF0
0180
03C0
0660
0C30
0000
0000
0000
0000
0000
0000
0000
0000
0000
ENDCHAR
STARTCHAR U+F646
ENCODING 63046
SWIDTH 16000 0
DWIDTH 16 0
BBX 16 16 0 0
BITMAP
0000
0000
1800
0C00
0C00
0C00
07F0
0000
0000
0000
0000
0000
0000
0000
0000
0000
ENDCHAR
STARTCHAR U+F647
ENCODING 63047
SWIDTH 16000 0
DWIDTH 16 0
BBX 16 16 0 0
BITMAP
0000
0000
1FE0
0C00
0C00
0C00
07F0
0000
0000
0000
0000
0000
0000
0000
0000
0000
ENDCHAR
STARTCHAR U+F648
ENCODING 63048
SWIDTH 16000 0
DWIDTH 16 0
BBX 16 16 0 0
BITMAP
0000
0000
0FE0
0030
0FF0
0C00
0C00
07F0
0000
0000
0000
0000
0000
0000
0000
0000
ENDCHAR
STARTCHAR U+F649
ENCODING 63049
SWIDTH 16000 0
DWIDTH 16 0
BBX 16 16 0 0
BITMAP
0000
0000
07E0
0C30
0810
0C30
07E0
0000
0000
0000
0000
0000
0000
0000
0000
0000
ENDCHAR
STARTCHAR U+F64A
ENCODING 63050
SWIDTH 16000 0
DWIDTH 16 0
BBX 16 16 0 0
BITMAP
0000
0180
0FF0
0180
03C0
0660
0C30
0000
0000
0000
0000
0000
0000
0000
0000
0000
ENDCHAR
STARTCHAR U+F64B
ENCODING 63051
SWIDTH 16000 0
DWIDTH 16 0
BBX 16 16 0 0
BITMAP
0000
0000
0FE0
0030
03F0
0030
0020
0000
0000
0000
0000
0000
0000
0000
0000
0000
ENDCHAR
STARTCHAR U+F64C
ENCODING 63052
SWIDTH 16000 0
DWIDTH 16 0
BBX 16 16 0 0
BITMAP
0000
0000
1CE0
0630
0630
0630
0630
0420
0000
0000
0000
0000
0000
0000
0000
0000
ENDCHAR
STARTCHAR U+F64D
ENCODING 63053
SWIDTH 16000 0
DWIDTH 16 0
BBX 16 16 0 0
BITMAP
0000
0000
06C0
06C0
0FE0
1B30
1230
0000
0000
0000
0000
0000
0000
0000
0000
0000
ENDCHAR
STARTCHAR U+F64E
ENCODING 63054
SWIDTH 16000 0
DWIDTH 16 0
BBX 16 16 0 0
BITMAP
0000
0000
1FF0
0CC0
0CC0
0CC0
0778
0000
0000
0000
0000
0000
0000
0000
0000
0000
ENDCHAR
STARTCHAR U+F64F
ENCODING 63055
SWIDTH 16000 0
DWIDTH 16 0
BBX 16 16 0 0
BITMAP
0000
0920
0DB0
0FF0
0DB0
0DB0
07E0
0000
0000
0000
0000
0000
0000
0000
0000
0000
ENDCHAR
STARTCHAR U+F650
ENCODING 63056
SWIDTH 16000 0
DWIDTH 16 0
BBX 16 16 0 0
BITMAP
0000
0000
0FE0
06C0
06E0
0DB0
1B30
0000
0000
0000
0000
0000
0000
0000
0000
0000
ENDCHAR
STARTCHAR U+F651
ENCODING 63057
SWIDTH 16000 0
DWIDTH 16 0
BBX 16 16 0 0
BITMAP
0000
0000
0000
3E00
0300
0300
0300
0200
0000
0000
0000
0000
0000
0000
0000
0000
ENDCHAR
STARTCHAR U+F652
ENCODING 63058
SWIDTH 16000 0
DWIDTH 16 0
BBX 16 16 0 0
BITMAP
0000
0000
0000
7E00
3300
3300
3200
1F00
0000
0000
0000
0000
0000
0000
0000
0000
ENDCHAR
STARTCHAR U+F653
ENCODING 63059
SWIDTH 16000 0
DWIDTH 16 0
BBX 16 16 0 0
BITMAP
0000
0000
0000
6600
3300
3F00
3300
1F00
0000
0000
0000
0000
0000
0000
0000
0000
ENDCHAR
STARTCHAR U+F654
ENCODING 63060
SWIDTH 16000 0
DWIDTH 16 0
BBX 16 16 0 0
BITMAP
0000
0000
0000
0C00
0C00
1E00
3300
6300
0000
0000
0000
0000
0000
0000
0000
0000
ENDCHAR
STARTCHAR U+F655
ENCODING 63061
SWIDTH 16000 0
DWIDTH 16 0
BBX 16 16 0 0
BITMAP
0000
0000
0000
7E00
3000
3E00
3000
1F00
0000
0000
0000
0000
0000
0000
0000
0000
ENDCHAR
STARTCHAR U+F656
ENCODING 63062
SWIDTH 16000 0
DWIDTH 16 0
BBX 16 16 0 0
BITMAP
0000
0000
0000
7F00
2600
3600
3400
7F00
0000
0000
0000
0000
0000
0000
0000
0000
ENDCHAR
STARTCHAR U+F657
ENCODING 63063
SWIDTH 16000 0
DWIDTH 16 0
BBX 16 16 0 0
BITMAP
0000
0000
0C00
3F00
0000
1E00
3300
1E00
0000
0000
0000
0000
0000
0000
0000
0000
ENDCHAR
STARTCHAR U+F658
ENCODING 63064
SWIDTH 16000 0
DWIDTH 16 0
BBX 16 16 0 0
BITMAP
0000
0000
0000
3F00
0C00
1E00
3300
2300
0000
0000
0000
0000
0000
0000
0000
0000
ENDCHAR
STARTCHAR U+F659
ENCODING 63065
SWIDTH 16000 0
DWIDTH 16 0
BBX 16 16 0 0
BITMAP
0000
0000
0000
6000
3000
3000
3000
1F00
0000
0000
0000
0000
0000
0000
0000
0000
ENDCHAR
STARTCHAR U+F65A
ENCODING 63066
SWIDTH 16000 0
DWIDTH 16 0
BBX 16 16 0 0
BITMAP
0000
0000
0000
7E00
3000
3000
3000
1F00
0000
0000
0000
0000
0000
0000
0000
0000
ENDCHAR
STARTCHAR U+F65B
ENCODING 63067
SWIDTH 16000 0
DWIDTH 16 0
BBX 16 16 0 0
BITMAP
0000
0000
0000
3E00
0300
3F00
3000
1F00
0000
0000
0000
0000
0000
0000
0000
0000
ENDCHAR
STARTCHAR U+F65C
ENCODING 63068
SWIDTH 16000 0
DWIDTH 16 0
BBX 16 16 0 0
BITMAP
0000
0000
0000
1E00
3300
2100
3300
1E00
0000
0000
0000
0000
0000
0000
0000
0000
ENDCHAR
STARTCHAR U+F65D
ENCODING 63069
SWIDTH 16000 0
DWIDTH 16 0
BBX 16 16 0 0
BITMAP
0000
0000
0C00
3F00
0C00
1E00
3300
2300
0000
0000
0000
0000
0000
0000
0000
0000
ENDCHAR
STARTCHAR U+F65E
ENCODING 63070
SWIDTH 16000 0
DWIDTH 16 0
BBX 16 16 0 0
BITMAP
0000
0000
0000
3E00
0300
1F00
0300
0200
0000
0000
0000
0000
0000
0000
0000
0000
ENDCHAR
STARTCHAR U+F65F
ENCODING 63071
SWIDTH 16000 0
DWIDTH 16 0
BBX 16 16 0 0
BITMAP
0000
0000
0000
EE00
3300
3300
3300
2200
0000
0000
0000
0000
0000
0000
0000
0000
ENDCHAR
STARTCHAR U+F660
ENCODING 63072
SWIDTH 16000 0
DWIDTH 16 0
BBX 16 16 0 0
BITMAP
0000
0000
0000
3600
3600
7E00
5B00
1300
0000
0000
0000
0000
0000
0000
0000
0000
ENDCHAR
STARTCHAR U+F661
ENCODING 63073
SWIDTH 16000 0
DWIDTH 16 0
BBX 16 16 0 0
BITMAP
0000
0000
0000
7F00
3600
3600
3600
1B80
0000
0000
0000
0000
0000
0000
0000
0000
ENDCHAR
STARTCHAR U+F662
ENCODING 63074
SWIDTH 16000 0
DWIDTH 16 0
BBX 16 16 0 0
BITMAP
0000
0000
0000
9200
DB00
FF00
DB00
7E00
0000
0000
0000
0000
0000
0000
0000
0000
ENDCHAR
STARTCHAR U+F663
ENCODING 63075
SWIDTH 16000 0
DWIDTH 16 0
BBX 16 16 0 0
BITMAP
0000
0000
0000
7F00
3600
7E00
5B00
1300
0000
0000
0000
0000
0000
0000
0000
0000
ENDCHAR
STARTCHAR U+F664
ENCODING 63076
SWIDTH 16000 0
DWIDTH 16 0
BBX 16 16 0 0
BITMAP
0000
0000
0000
3E00
0600
0600
0C00
1800
6000
0000
0000
0000
0000
0000
0000
0000
ENDCHAR
STARTCHAR U+F665
ENCODING 63077
SWIDTH 16000 0
DWIDTH 16 0
BBX 16 16 0 0
BITMAP
0000
0000
0000
7E00
3300
3300
3200
1F00
0000
0000
0000
0000
0000
0000
0000
0000
ENDCHAR
STARTCHAR U+F666
ENCODING 63078
SWIDTH 16000 0
DWIDTH 16 0
BBX 16 16 0 0
BITMAP
0000
0000
0000
6600
3300
3F00
3300
1F00
0000
0000
0000
0000
0000
0000
0000
0000
ENDCHAR
STARTCHAR U+F667
ENCODING 63079
SWIDTH 16000 0
DWIDTH 16 0
BBX 16 16 0 0
BITMAP
0000
0000
0000
0C00
0C00
0C00
1E00
3300
0000
0000
0000
0000
0000
0000
0000
0000
ENDCHAR
STARTCHAR U+F668
ENCODING 63080
SWIDTH 16000 0
DWIDTH 16 0
BBX 16 16 0 0
BITMAP
0000
0000
0000
7E00
3000
3E00
3000
1F00
0000
0000
0000
0000
0000
0000
0000
0000
ENDCHAR
STARTCHAR U+F669
ENCODING 63081
SWIDTH 16000 0
DWIDTH 16 0
BBX 16 16 0 0
BITMAP
0000
0000
0000
7F00
2600
3600
3400
7F00
0000
0000
0000
0000
0000
0000
0000
0000
ENDCHAR
STARTCHAR U+F66A
ENCODING 63082
SWIDTH 16000 0
DWIDTH 16 0
BBX 16 16 0 0
BITMAP
0000
0000
0C00
3F00
0000
1E00
3300
3300
1E00
0000
0000
0000
0000
0000
0000
0000
ENDCHAR
STARTCHAR U+F66B
ENCODING 63083
SWIDTH 16000 0
DWIDTH 16 0
BBX 16 16 0 0
BITMAP
0000
0000
0000
3F00
0C00
1E00
3300
2300
0000
0000
0000
0000
0000
0000
0000
0000
ENDCHAR
STARTCHAR U+F66C
ENCODING 63084
SWIDTH 16000 0
DWIDTH 16 0
BBX 16 16 0 0
BITMAP
0000
0000
0000
6000
3000
3000
3000
1F00
0000
0000
0000
0000
0000
0000
0000
0000
ENDCHAR
STARTCHAR U+F66D
ENCODING 63085
SWIDTH 16000 0
DWIDTH 16 0
BBX 16 16 0 0
BITMAP
0000
0000
0000
7E00
3000
3000
3000
1F00
0000
0000
0000
0000
0000
0000
0000
0000
ENDCHAR
STARTCHAR U+F66E
ENCODING 63086
SWIDTH 16000 0
DWIDTH 16 0
BBX 16 16 0 0
BITMAP
0000
0000
0000
3E00
0300
3E00
3000
1F00
0000
0000
0000
0000
0000
0000
0000
0000
ENDCHAR
STARTCHAR U+F66F
ENCODING 63087
SWIDTH 16000 0
DWIDTH 16 0
BBX 16 16 0 0
BITMAP
0000
0000
0000
1E00
3300
2100
3300
1E00
0000
0000
0000
0000
0000
0000
0000
0000
ENDCHAR
STARTCHAR U+F670
ENCODING 63088
SWIDTH 16000 0
DWIDTH 16 0
BBX 16 16 0 0
BITMAP
0000
0000
0C00
3F00
0C00
0C00
1E00
1200
3300
0000
0000
0000
0000
0000
0000
0000
ENDCHAR
STARTCHAR U+F671
ENCODING 63089
SWIDTH 16000 0
DWIDTH 16 0
BBX 16 16 0 0
BITMAP
0000
0000
0000
3E00
0600
3E00
0C00
7000
0000
0000
0000
0000
0000
0000
0000
0000
ENDCHAR
STARTCHAR U+F672
ENCODING 63090
SWIDTH 16000 0
DWIDTH 16 0
BBX 16 16 0 0
BITMAP
0000
0000
0000
EE00
3600
3600
6600
8C00
3000
0000
0000
0000
0000
0000
0000
0000
ENDCHAR
STARTCHAR U+F673
ENCODING 63091
SWIDTH 16000 0
DWIDTH 16 0
BBX 16 16 0 0
BITMAP
0000
0000
0000
3600
3600
3600
6F00
D980
0000
0000
0000
0000
0000
0000
0000
0000
ENDCHAR
STARTCHAR U+F674
ENCODING 63092
SWIDTH 16000 0
DWIDTH 16 0
BBX 16 16 0 0
BITMAP
0000
0000
0000
7F00
3600
3600
3600
1B80
0000
0000
0000
0000
0000
0000
0000
0000
ENDCHAR
STARTCHAR U+F675
ENCODING 63093
SWIDTH 16000 0
DWIDTH 16 0
BBX 16 16 0 0
BITMAP
0000
0000
0000
9200
DB00
FF00
DB00
7E00
0000
0000
0000
0000
0000
0000
0000
0000
ENDCHAR
STARTCHAR U+F676
ENCODING 63094
SWIDTH 16000 0
DWIDTH 16 0
BBX 16 16 0 0
BITMAP
0000
0000
0000
7F00
3600
3600
6F00
D980
0000
0000
0000
0000
0000
0000
0000
0000
ENDCHAR
STARTCHAR U+F677
ENCODING 63095
SWIDTH 16000 0
DWIDTH 16 0
BBX 16 16 0 0
BITMAP
0000
0000
0FE0
0030
0030
0030
0020
0000
0000
0000
0000
0000
0000
0000
0000
0000
ENDCHAR
STARTCHAR U+F678
ENCODING 63096
SWIDTH 16000 0
DWIDTH 16 0
BBX 16 16 0 0
BITMAP
0000
0000
0FE0
0630
0630
0620
03F0
0000
0000
0000
0000
0000
0000
0000
0000
0000
ENDCHAR
STARTCHAR U+F679
ENCODING 63097
SWIDTH 16000 0
DWIDTH 16 0
BBX 16 16 0 0
BITMAP
0000
0000
0820
0C30
0FF0
0C30
07E0
0000
0000
0000
0000
0000
0000
0000
0000
0000
ENDCHAR
STARTCHAR U+F67A
ENCODING 63098
SWIDTH 16000 0
DWIDTH 16 0
BBX 16 16 0 0
BITMAP
0000
0000
0180
0180
03C0
0660
0C30
0000
0000
0000
0000
0000
0000
0000
0000
0000
ENDCHAR
STARTCHAR U+F67B
ENCODING 63099
SWIDTH 16000 0
DWIDTH 16 0
BBX 16 16 0 0
BITMAP
0000
0000
1FE0
0C00
0FE0
0C00
07F0
0000
0000
0000
0000
0000
0000
0000
0000
0000
ENDCHAR
STARTCHAR U+F67C
ENCODING 63100
SWIDTH 16000 0
DWIDTH 16 0
BBX 16 16 0 0
BITMAP
0000
0000
0FF0
0460
0660
0640
0FF0
0000
0000
0000
0000
0000
0000
0000
0000
0000
ENDCHAR
STARTCHAR U+F67D
ENCODING 63101
SWIDTH 16000 0
DWIDTH 16 0
BBX 16 16 0 0
BITMAP
0000
0000
0180
1FF8
07E0
0C30
07E0
0000
0000
0000
0000
0000
0000
0000
0000
0000
ENDCHAR
STARTCHAR U+F67E
ENCODING 63102
SWIDTH 16000 0
DWIDTH 16 0
BBX 16 16 0 0
BITMAP
0000
0000
0FF0
0180
03C0
0660
0C30
0000
0000
0000
0000
0000
0000
0000
0000
0000
ENDCHAR
STARTCHAR U+F67F
ENCODING 63103
SWIDTH 16000 0
DWIDTH 16 0
BBX 16 16 0 0
BITMAP
0000
0000
0800
0C00
0C00
0C00
07F0
0000
0000
0000
0000
0000
0000
0000
0000
0000
ENDCHAR
STARTCHAR U+F680
ENCODING 63104
SWIDTH 16000 0
DWIDTH 16 0
BBX 16 16 0 0
BITMAP
0000
0000
1FE0
0C00
0C00
0C00
07F0
0000
0000
0000
0000
0000
0000
0000
0000
0000
ENDCHAR
STARTCHAR U+F681
ENCODING 63105
SWIDTH 16000 0
DWIDTH 16 0
BBX 16 16 0 0
BITMAP
0000
0000
0FE0
0030
0FF0
0C00
07F0
0000
0000
0000
0000
0000
0000
0000
0000
0000
ENDCHAR
STARTCHAR U+F682
ENCODING 63106
SWIDTH 16000 0
DWIDTH 16 0
BBX 16 16 0 0
BITMAP
0000
0000
03E0
0630
0410
0630
03E0
0000
0000
0000
0000
0000
0000
0000
0000
0000
ENDCHAR
STARTCHAR U+F683
ENCODING 63107
SWIDTH 16000 0
DWIDTH 16 0
BBX 16 16 0 0
BITMAP
0000
0000
0180
0FF0
03C0
0660
0C30
0000
0000
0000
0000
0000
0000
0000
0000
0000
ENDCHAR
STARTCHAR U+F684
ENCODING 63108
SWIDTH 16000 0
DWIDTH 16 0
BBX 16 16 0 0
BITMAP
0000
0000
0FE0
0030
07F0
0030
0020
0000
0000
0000
0000
0000
0000
0000
0000
0000
ENDCHAR
STARTCHAR U+F685
ENCODING 63109
SWIDTH 16000 0
DWIDTH 16 0
BBX 16 16 0 0
BITMAP
0000
0000
1CE0
0630
0630
0630
0420
0000
0000
0000
0000
0000
0000
0000
0000
0000
ENDCHAR
STARTCHAR U+F686
ENCODING 63110
SWIDTH 16000 0
DWIDTH 16 0
BBX 16 16 0 0
BITMAP
0000
0000
06C0
06C0
0FE0
1B30
1230
0000
0000
0000
0000
0000
0000
0000
0000
0000
ENDCHAR
STARTCHAR U+F687
ENCODING 63111
SWIDTH 16000 0
DWIDTH 16 0
BBX 16 16 0 0
BITMAP
0000
0000
0FF0
06C0
06C0
06C0
0378
0000
0000
0000
0000
0000
0000
0000
0000
0000
ENDCHAR
STARTCHAR U+F688
ENCODING 63112
SWIDTH 16000 0
DWIDTH 16 0
BBX 16 16 0 0
BITMAP
0000
0000
0920
0DB0
0FF0
0DB0
07E0
0000
0000
0000
0000
0000
0000
0000
0000
0000
ENDCHAR
STARTCHAR U+F689
ENCODING 63113
SWIDTH 16000 0
DWIDTH 16 0
BBX 16 16 0 0
BITMAP
0000
0000
0FE0
06C0
07E0
0DB0
1B30
0000
0000
0000
0000
0000
0000
0000
0000
0000
ENDCHAR
STARTCHAR U+F68A
ENCODING 63114
SWIDTH 16000 0
DWIDTH 16 0
BBX 16 16 0 0
BITMAP
0000
0000
3F00
0180
0180
0180
0100
0000
0000
0000
0000
0000
0000
0000
0000
0000
ENDCHAR
STARTCHAR U+F68B
ENCODING 63115
SWIDTH 16000 0
DWIDTH 16 0
BBX 16 16 0 0
BITMAP
0000
0000
7E00
3300
3300
3200
1F00
0000
0000
0000
0000
0000
0000
0000
0000
0000
ENDCHAR
STARTCHAR U+F68C
ENCODING 63116
SWIDTH 16000 0
DWIDTH 16 0
BBX 16 16 0 0
BITMAP
0000
0000
2200
3300
3F00
3300
1F00
0000
0000
0000
0000
0000
0000
0000
0000
0000
ENDCHAR
STARTCHAR U+F68D
ENCODING 63117
SWIDTH 16000 0
DWIDTH 16 0
BBX 16 16 0 0
BITMAP
0000
0000
0C00
0C00
1E00
3300
2100
0000
0000
0000
0000
0000
0000
0000
0000
0000
ENDCHAR
STARTCHAR U+F68E
ENCODING 63118
SWIDTH 16000 0
DWIDTH 16 0
BBX 16 16 0 0
BITMAP
0000
0000
7E00
3000
3E00
3000
1F00
0000
0000
0000
0000
0000
0000
0000
0000
0000
ENDCHAR
STARTCHAR U+F68F
ENCODING 63119
SWIDTH 16000 0
DWIDTH 16 0
BBX 16 16 0 0
BITMAP
0000
0000
7F00
2600
3600
3400
7F00
0000
0000
0000
0000
0000
0000
0000
0000
0000
ENDCHAR
STARTCHAR U+F690
ENCODING 63120
SWIDTH 16000 0
DWIDTH 16 0
BBX 16 16 0 0
BITMAP
0000
0C00
3F00
1E00
3300
3300
1E00
0000
0000
0000
0000
0000
0000
0000
0000
0000
ENDCHAR
STARTCHAR U+F691
ENCODING 63121
SWIDTH 16000 0
DWIDTH 16 0
BBX 16 16 0 0
BITMAP
0000
0000
3F00
0C00
1E00
3300
2100
0000
0000
0000
0000
0000
0000
0000
0000
0000
ENDCHAR
STARTCHAR U+F692
ENCODING 63122
SWIDTH 16000 0
DWIDTH 16 0
BBX 16 16 0 0
BITMAP
0000
0000
2000
3000
3000
3000
1F00
0000
0000
0000
0000
0000
0000
0000
0000
0000
ENDCHAR
STARTCHAR U+F693
ENCODING 63123
SWIDTH 16000 0
DWIDTH 16 0
BBX 16 16 0 0
BITMAP
0000
0000
7E00
3000
3000
3000
1F00
0000
0000
0000
0000
0000
0000
0000
0000
0000
ENDCHAR
STARTCHAR U+F694
ENCODING 63124
SWIDTH 16000 0
DWIDTH 16 0
BBX 16 16 0 0
BITMAP
0000
0000
3E00
0300
3F00
3000
1F00
0000
0000
0000
0000
0000
0000
0000
0000
0000
ENDCHAR
STARTCHAR U+F695
ENCODING 63125
SWIDTH 16000 0
DWIDTH 16 0
BBX 16 16 0 0
BITMAP
0000
0000
1E00
3300
3300
3300
1E00
0000
0000
0000
0000
0000
0000
0000
0000
0000
ENDCHAR
STARTCHAR U+F696
ENCODING 63126
SWIDTH 16000 0
DWIDTH 16 0
BBX 16 16 0 0
BITMAP
0000
0000
0C00
3F00
0C00
1E00
3300
0000
0000
0000
0000
0000
0000
0000
0000
0000
ENDCHAR
STARTCHAR U+F697
ENCODING 63127
SWIDTH 16000 0
DWIDTH 16 0
BBX 16 16 0 0
BITMAP
0000
0000
0000
3E00
0300
1F00
0300
0200
0000
0000
0000
0000
0000
0000
0000
0000
ENDCHAR
STARTCHAR U+F698
ENCODING 63128
SWIDTH 16000 0
DWIDTH 16 0
BBX 16 16 0 0
BITMAP
0000
0000
7600
1B00
1B00
1200
0000
0000
0000
0000
0000
0000
0000
0000
0000
0000
ENDCHAR
STARTCHAR U+F699
ENCODING 63129
SWIDTH 16000 0
DWIDTH 16 0
BBX 16 16 0 0
BITMAP
0000
0000
0000
3600
3600
7E00
5B00
1300
0000
0000
0000
0000
0000
0000
0000
0000
ENDCHAR
STARTCHAR U+F69A
ENCODING 63130
SWIDTH 16000 0
DWIDTH 16 0
BBX 16 16 0 0
BITMAP
0000
0000
7F00
6C00
6C00
6C00
3700
0000
0000
0000
0000
0000
0000
0000
0000
0000
ENDCHAR
STARTCHAR U+F69B
ENCODING 63131
SWIDTH 16000 0
DWIDTH 16 0
BBX 16 16 0 0
BITMAP
0000
0000
4100
6B00
7F00
6B00
3F00
0000
0000
0000
0000
0000
0000
0000
0000
0000
ENDCHAR
STARTCHAR U+F69C
ENCODING 63132
SWIDTH 16000 0
DWIDTH 16 0
BBX 16 16 0 0
BITMAP
0000
0000
7F00
3200
7E00
5B00
1300
0000
0000
0000
0000
0000
0000
0000
0000
0000
ENDCHAR
STARTCHAR U+F69D
ENCODING 63133
SWIDTH 16000 0
DWIDTH 16 0
BBX 16 16 0 0
BITMAP
0000
0000
0000
0000
0000
0000
0000
0000
0000
0000
0FE0
0030
0030
0030
0020
0000
ENDCHAR
STARTCHAR U+F69E
ENCODING 63134
SWIDTH 16000 0
DWIDTH 16 0
BBX 16 16 0 0
BITMAP
0000
0000
0000
0000
0000
0000
0000
0000
0000
0000
0FE0
0630
0630
0620
03F0
0000
ENDCHAR
STARTCHAR U+F69F
ENCODING 63135
SWIDTH 16000 0
DWIDTH 16 0
BBX 16 16 0 0
BITMAP
0000
0000
0000
0000
0000
0000
0000
0000
0000
0000
0820
0C30
0FF0
0C20
07F0
0000
ENDCHAR
STARTCHAR U+F6A0
ENCODING 63136
SWIDTH 16000 0
DWIDTH 16 0
BBX 16 16 0 0
BITMAP
0000
0000
0000
0000
0000
0000
0000
0000
0000
0000
0180
0180
03C0
0660
0C30
0000
ENDCHAR
STARTCHAR U+F6A1
ENCODING 63137
SWIDTH 16000 0
DWIDTH 16 0
BBX 16 16 0 0
BITMAP
0000
0000
0000
0000
0000
0000
0000
0000
0000
0000
1FE0
0C00
0FE0
0C00
07F0
0000
ENDCHAR
STARTCHAR U+F6A2
ENCODING 63138
SWIDTH 16000 0
DWIDTH 16 0
BBX 16 16 0 0
BITMAP
0000
0000
0000
0000
0000
0000
0000
0000
0000
0000
0FF0
0460
0660
0640
0FF0
0000
ENDCHAR
STARTCHAR U+F6A3
ENCODING 63139
SWIDTH 16000 0
DWIDTH 16 0
BBX 16 16 0 0
BITMAP
0000
0000
0000
0000
0000
0000
0000
0000
0000
0000
0180
0FF0
07E0
0C30
07E0
0000
ENDCHAR
STARTCHAR U+F6A4
ENCODING 63140
SWIDTH 16000 0
DWIDTH 16 0
BBX 16 16 0 0
BITMAP
0000
0000
0000
0000
0000
0000
0000
0000
0000
0000
0FF0
0180
03C0
0660
0C30
0000
ENDCHAR
STARTCHAR U+F6A5
ENCODING 63141
SWIDTH 16000 0
DWIDTH 16 0
BBX 16 16 0 0
BITMAP
0000
0000
0000
0000
0000
0000
0000
0000
0000
0000
0800
0C00
0C00
0C00
07F0
0000
ENDCHAR
STARTCHAR U+F6A6
ENCODING 63142
SWIDTH 16000 0
DWIDTH 16 0
BBX 16 16 0 0
BITMAP
0000
0000
0000
0000
0000
0000
0000
0000
0000
0000
1FE0
0C00
0C00
0C00
07F0
0000
ENDCHAR
STARTCHAR U+F6A7
ENCODING 63143
SWIDTH 16000 0
DWIDTH 16 0
BBX 16 16 0 0
BITMAP
0000
0000
0000
0000
0000
0000
0000
0000
0000
0000
0FE0
0030
0FF0
0C00
07F0
0000
ENDCHAR
STARTCHAR U+F6A8
ENCODING 63144
SWIDTH 16000 0
DWIDTH 16 0
BBX 16 16 0 0
BITMAP
0000
0000
0000
0000
0000
0000
0000
0000
0000
0000
03E0
0630
0410
0630
03E0
0000
ENDCHAR
STARTCHAR U+F6A9
ENCODING 63145
SWIDTH 16000 0
DWIDTH 16 0
BBX 16 16 0 0
BITMAP
0000
0000
0000
0000
0000
0000
0000
0000
0000
0000
0180
0FF0
03C0
0660
0C30
0000
ENDCHAR
STARTCHAR U+F6AA
ENCODING 63146
SWIDTH 16000 0
DWIDTH 16 0
BBX 16 16 0 0
BITMAP
0000
0000
0000
0000
0000
0000
0000
0000
0000
0000
0FE0
0030
07F0
0030
0020
0000
ENDCHAR
STARTCHAR U+F6AB
ENCODING 63147
SWIDTH 16000 0
DWIDTH 16 0
BBX 16 16 0 0
BITMAP
0000
0000
0000
0000
0000
0000
0000
0000
0000
0000
0EE0
0330
0330
0330
0220
0000
ENDCHAR
STARTCHAR U+F6AC
ENCODING 63148
SWIDTH 16000 0
DWIDTH 16 0
BBX 16 16 0 0
BITMAP
0000
0000
0000
0000
0000
0000
0000
0000
0000
0000
0660
0660
0FF0
1998
1108
0000
ENDCHAR
STARTCHAR U+F6AD
ENCODING 63149
SWIDTH 16000 0
DWIDTH 16 0
BBX 16 16 0 0
BITMAP
0000
0000
0000
0000
0000
0000
0000
0000
0000
0000
1C60
0660
06F0
0798
0508
0000
ENDCHAR
STARTCHAR U+F6AE
ENCODING 63150
SWIDTH 16000 0
DWIDTH 16 0
BBX 16 16 0 0
BITMAP
0000
0000
0000
0000
0000
0000
0000
0000
0000
0000
10F0
1860
18F0
1998
0F08
0000
ENDCHAR
STARTCHAR U+F6AF
ENCODING 63151
SWIDTH 16000 0
DWIDTH 16 0
BBX 16 16 0 0
BITMAP
0000
0000
0000
0000
0000
0000
0000
0000
0000
0000
1060
19F8
18F0
1998
0CF0
0000
ENDCHAR
STARTCHAR U+F6B0
ENCODING 63152
SWIDTH 16000 0
DWIDTH 16 0
BBX 16 16 0 0
BITMAP
0000
0000
0000
0000
0000
0000
0000
0000
0000
0000
1EF0
0318
1F18
1818
0E10
0000
ENDCHAR
STARTCHAR U+F6B1
ENCODING 63153
SWIDTH 16000 0
DWIDTH 16 0
BBX 16 16 0 0
BITMAP
0000
0000
0000
0000
0000
0000
0000
0000
0000
0000
1EF8
03D8
1ED8
18D0
0F78
0000
ENDCHAR
STARTCHAR U+F6B2
ENCODING 63154
SWIDTH 16000 0
DWIDTH 16 0
BBX 16 16 0 0
BITMAP
0000
0000
0000
0000
0000
0000
0000
0000
0000
0000
1E90
03D8
1EF8
18D0
0F78
0000
ENDCHAR
STARTCHAR U+F6B3
ENCODING 63155
SWIDTH 16000 0
DWIDTH 16 0
BBX 16 16 0 0
BITMAP
0000
0000
0000
0000
0000
0000
0000
0000
0000
0000
1E60
0360
1EF0
1998
0F08
0000
ENDCHAR
STARTCHAR U+F6B4
ENCODING 63156
SWIDTH 16000 0
DWIDTH 16 0
BBX 16 16 0 0
BITMAP
0000
0000
0000
0000
0000
0000
0000
0000
0000
0000
1EF0
03C0
1EF0
18C0
0E78
0000
ENDCHAR
STARTCHAR U+F6B5
ENCODING 63157
SWIDTH 16000 0
DWIDTH 16 0
BBX 16 16 0 0
BITMAP
0000
0000
0000
0000
0000
0000
0000
0000
0000
0000
1EF8
0350
1F50
1850
0FF8
0000
ENDCHAR
STARTCHAR U+F6B6
ENCODING 63158
SWIDTH 16000 0
DWIDTH 16 0
BBX 16 16 0 0
BITMAP
0000
0000
0000
0000
0000
0000
0000
0000
0000
0000
1C60
07F8
1EF0
1198
1CF0
0000
ENDCHAR
STARTCHAR U+F6B7
ENCODING 63159
SWIDTH 16000 0
DWIDTH 16 0
BBX 16 16 0 0
BITMAP
0000
0000
0000
0000
0000
0000
0000
0000
0000
0000
2060
3460
3EF0
3798
1F08
0000
ENDCHAR
ENDFONT